<?xml version="1.0" encoding="UTF-8" standalone="no"?>
<!-- Created with Inkscape (http://www.inkscape.org/) -->

<svg
   xmlns:dc="http://purl.org/dc/elements/1.1/"
   xmlns:cc="http://creativecommons.org/ns#"
   xmlns:rdf="http://www.w3.org/1999/02/22-rdf-syntax-ns#"
   xmlns:svg="http://www.w3.org/2000/svg"
   xmlns="http://www.w3.org/2000/svg"
   xmlns:sodipodi="http://sodipodi.sourceforge.net/DTD/sodipodi-0.dtd"
   xmlns:inkscape="http://www.inkscape.org/namespaces/inkscape"
   width="265.83691mm"
   height="265.09708mm"
   viewBox="0 0 265.83691 265.09708"
   version="1.1"
   id="svg8"
   inkscape:version="0.92.3 (2405546, 2018-03-11)"
   sodipodi:docname="add.svg">
  <defs
     id="defs2" />
  <sodipodi:namedview
     id="base"
     pagecolor="#ffffff"
     bordercolor="#666666"
     borderopacity="1.0"
     inkscape:pageopacity="0.0"
     inkscape:pageshadow="2"
     inkscape:zoom="0.35"
     inkscape:cx="1884.8575"
     inkscape:cy="572.39942"
     inkscape:document-units="mm"
     inkscape:current-layer="layer1"
     showgrid="false"
     fit-margin-top="0"
     fit-margin-left="0"
     fit-margin-right="0"
     fit-margin-bottom="0"
     inkscape:window-width="2400"
     inkscape:window-height="1284"
     inkscape:window-x="2391"
     inkscape:window-y="-9"
     inkscape:window-maximized="1" />
  <metadata
     id="metadata5">
    <rdf:RDF>
      <cc:Work
         rdf:about="">
        <dc:format>image/svg+xml</dc:format>
        <dc:type
           rdf:resource="http://purl.org/dc/dcmitype/StillImage" />
        <dc:title></dc:title>
      </cc:Work>
    </rdf:RDF>
  </metadata>
  <g
     inkscape:label="Layer 1"
     inkscape:groupmode="layer"
     id="layer1"
     transform="translate(352.14464,-35.183602)">
    <g
       id="g826"
       transform="translate(-305.40476,9.0714286)">
      <path
         style="fill:#fafafa;stroke-width:0.24660194"
         d="M -46.739883,158.66071 V 26.112173 H 86.178572 219.09703 V 158.66071 291.20925 H 86.178572 -46.739883 Z"
         id="path842"
         inkscape:connector-curvature="0" />
      <path
         style="fill:#ebebeb;stroke-width:0.24660194"
         d="M -46.739883,158.29081 V 26.112173 H 86.178572 219.09703 V 158.29081 290.46945 H 86.178572 -46.739883 Z"
         id="path840"
         inkscape:connector-curvature="0" />
      <path
         style="fill:#e1e1e1;stroke-width:0.24660194"
         d="m 78.287309,237.42747 c -3.010684,-0.58363 -6.383567,-3.10449 -7.859931,-5.87443 -1.569553,-2.94479 -1.510943,-1.78926 -1.510943,-29.7888 V 176.29275 H 43.444943 c -22.076362,0 -25.664723,-0.0503 -26.921178,-0.37759 -4.32722,-1.1271 -7.6208287,-4.4833 -8.6394304,-8.80361 -0.5187618,-2.20029 -0.5187618,-13.96158 0,-16.16187 1.0186017,-4.32031 4.3122104,-7.67651 8.6394304,-8.80361 1.256455,-0.32726 4.844816,-0.37759 26.921178,-0.37759 h 25.471492 v -25.47149 c 0,-28.010714 -0.05946,-26.842429 1.516494,-29.799211 0.927156,-1.739521 3.107132,-3.87081 4.876136,-4.767232 2.257217,-1.143817 3.967394,-1.357384 10.869507,-1.357384 6.902113,0 8.61229,0.213567 10.869507,1.357384 1.769004,0.896422 3.948981,3.027711 4.876141,4.767232 1.57594,2.956782 1.51649,1.788497 1.51649,29.799211 v 25.47149 h 25.47149 c 28.01072,0 26.84243,-0.0595 29.79922,1.51649 1.73952,0.92716 3.87081,3.10714 4.76723,4.87614 1.14805,2.26558 1.35732,3.95954 1.35802,10.99281 7.4e-4,7.12251 -0.19145,8.53449 -1.49407,10.97845 -0.96362,1.80794 -2.84365,3.69114 -4.6416,4.64944 -2.94478,1.56955 -1.78926,1.51094 -29.7888,1.51094 h -25.47149 v 25.47149 c 0,28.01907 0.0601,26.84124 -1.52067,29.80704 -1.53059,2.87169 -4.835168,5.27945 -8.068816,5.87905 -1.605931,0.29778 -14.003827,0.27957 -15.563915,-0.0229 z"
         id="path838"
         inkscape:connector-curvature="0" />
      <path
         style="fill:#cbcbcb;stroke-width:0.24660194"
         d="m 78.314024,237.18331 c -3.002618,-0.58969 -6.400233,-3.14653 -7.768041,-5.84577 -1.427564,-2.81716 -1.382946,-1.85904 -1.382946,-29.6966 V 176.04615 H 43.568244 c -27.715554,0 -26.894537,0.037 -29.59766,-1.33281 -2.703549,-1.36999 -4.9621021,-4.22418 -5.7593465,-7.27824 -0.6215651,-2.38107 -0.6215651,-14.4279 0,-16.80897 0.7972444,-3.05406 3.0557975,-5.90825 5.7593465,-7.27824 2.703123,-1.36978 1.882106,-1.33281 29.59766,-1.33281 h 25.594793 v -25.59479 c 0,-27.71555 -0.03697,-26.894533 1.332805,-29.597655 1.369992,-2.703549 4.224185,-4.962102 7.278242,-5.759346 2.38107,-0.621566 14.427906,-0.621566 16.808976,0 3.054057,0.797244 5.90825,3.055797 7.27824,5.759346 1.36978,2.703122 1.33281,1.882105 1.33281,29.597655 v 25.59479 h 25.59479 c 27.71555,0 26.89454,-0.037 29.59766,1.33281 2.70355,1.36999 4.9621,4.22418 5.75935,7.27824 0.62156,2.38107 0.62156,14.4279 0,16.80897 -0.79725,3.05406 -3.0558,5.90825 -5.75935,7.27824 -2.70312,1.36978 -1.88211,1.33281 -29.59766,1.33281 h -25.59479 v 25.59479 c 0,21.89181 -0.0532,25.79911 -0.36785,27.00705 -1.13772,4.36801 -4.671262,7.73394 -8.976103,8.55033 -1.584761,0.30055 -13.990373,0.28856 -15.536133,-0.015 z"
         id="path836"
         inkscape:connector-curvature="0" />
      <path
         style="fill:#aaaaaa;stroke-width:0.24660194"
         d="m 78.353818,236.9529 c -3.620282,-0.74717 -6.787253,-3.47621 -8.260374,-7.11813 l -0.560504,-1.38571 -0.123301,-26.26311 -0.123301,-26.2631 -26.263109,-0.1233 -26.263108,-0.1233 -1.411739,-0.57025 c -2.113981,-0.8539 -4.153537,-2.47576 -5.331281,-4.23944 -1.7935679,-2.68589 -1.8880485,-3.27818 -1.8880485,-11.83594 0,-8.55777 0.094481,-9.15006 1.8880485,-11.83595 1.177744,-1.76368 3.2173,-3.38554 5.331281,-4.23944 l 1.411739,-0.57024 26.263108,-0.12331 26.263109,-0.1233 0.123301,-26.2631 0.123301,-26.263109 0.570245,-1.411739 c 0.853901,-2.11398 2.47576,-4.153536 4.239442,-5.33128 2.685893,-1.793568 3.278176,-1.888048 11.835945,-1.888048 8.557769,0 9.150052,0.09448 11.835945,1.888048 1.763682,1.177744 3.385543,3.2173 4.239443,5.33128 l 0.57024,1.411739 0.12331,26.263109 0.1233,26.2631 26.2631,0.1233 26.26311,0.12331 1.41174,0.57024 c 2.11398,0.8539 4.15354,2.47576 5.33128,4.23944 1.79357,2.68589 1.88805,3.27818 1.88805,11.83595 0,8.55776 -0.0945,9.15005 -1.88805,11.83594 -1.17774,1.76368 -3.2173,3.38554 -5.33128,4.23944 l -1.41174,0.57025 -26.26311,0.1233 -26.2631,0.1233 -0.1233,26.2631 -0.12331,26.26311 -0.55245,1.35068 c -1.27055,3.10639 -3.655532,5.50371 -6.666875,6.70137 -1.346133,0.53539 -1.755542,0.56393 -8.809798,0.61429 -4.068932,0.029 -7.867498,-0.0441 -8.441259,-0.1625 z"
         id="path834"
         inkscape:connector-curvature="0" />
      <path
         style="fill:#959595;stroke-width:0.24660194"
         d="m 77.819907,236.56657 c -3.799406,-1.02171 -6.808514,-4.03632 -7.819674,-7.83396 -0.276061,-1.03681 -0.338675,-5.98412 -0.341065,-26.94801 -0.0025,-21.02201 -0.06221,-25.72726 -0.329874,-25.9494 -0.232193,-0.19271 -7.936833,-0.29079 -26.584313,-0.33845 l -26.257365,-0.0671 -1.897447,-0.93784 c -3.097515,-1.53101 -5.1172813,-3.974 -5.9597969,-7.20864 -0.5455181,-2.09439 -0.5455181,-14.4107 0,-16.50509 1.0069226,-3.86584 4.0167069,-6.90615 7.8462039,-7.92579 1.036776,-0.27605 5.981197,-0.33868 26.928887,-0.34107 19.624855,-0.002 25.728524,-0.0725 25.954856,-0.29885 0.226331,-0.22633 0.29661,-6.33 0.298849,-25.95485 0.0025,-20.947687 0.06501,-25.892108 0.341065,-26.928884 1.019643,-3.829496 4.059956,-6.83928 7.925795,-7.846203 2.094388,-0.545518 14.4107,-0.545518 16.505088,0 3.865839,1.006923 6.906154,4.016707 7.925794,7.846203 0.27606,1.036806 0.33868,5.984119 0.34107,26.948014 0.002,21.07138 0.0618,25.72692 0.33113,25.95044 0.23383,0.19406 7.83835,0.29138 26.44806,0.33845 l 26.11985,0.0661 1.41561,0.57169 c 2.86865,1.1585 5.25009,3.54212 6.39133,6.39716 0.53666,1.34257 0.57021,1.788 0.65007,8.63234 0.0926,7.93506 -0.0219,9.0018 -1.22491,11.40919 -1.02547,2.05214 -2.75431,3.70914 -5.05796,4.84776 l -1.90163,0.93991 -26.25737,0.0671 c -18.64748,0.0477 -26.35212,0.14574 -26.58431,0.33845 -0.26766,0.22214 -0.32748,4.92739 -0.32987,25.9494 -0.002,20.96389 -0.065,25.9112 -0.34107,26.94801 -1.03185,3.87533 -4.01368,6.82722 -7.925794,7.8462 -2.027514,0.5281 -14.63643,0.51881 -16.611209,-0.0122 z"
         id="path832"
         inkscape:connector-curvature="0" />
      <path
         style="fill:#868686;stroke-width:0.24660194"
         d="m 77.218645,236.19885 c -3.349789,-1.15231 -5.687724,-3.46481 -6.814779,-6.74065 -0.491006,-1.42714 -0.50109,-1.9695 -0.504389,-27.1259 -0.002,-14.11831 -0.06905,-25.91463 -0.149333,-26.21406 l -0.145963,-0.54441 -26.175429,-0.0764 -26.175427,-0.0764 -1.479299,-0.5584 c -3.418095,-1.29022 -5.63897,-3.56176 -6.7727078,-6.92721 -0.4612074,-1.36907 -0.5023628,-2.0986 -0.5023628,-8.90485 0,-6.80626 0.041155,-7.53579 0.5023628,-8.90486 1.0850508,-3.22093 3.2969598,-5.55023 6.4923168,-6.8369 0.922491,-0.37145 3.543564,-0.42245 27.447481,-0.53397 14.535178,-0.0678 26.520033,-0.21574 26.633011,-0.32873 0.112979,-0.11298 0.2609,-12.09783 0.328716,-26.63301 l 0.123301,-26.427581 0.554548,-1.35631 c 1.039946,-2.543482 2.902661,-4.434912 5.648147,-5.735219 l 1.688567,-0.799733 h 8.261166 8.261166 l 1.688567,0.799733 c 2.745486,1.300307 4.608205,3.191737 5.648145,5.735219 l 0.55455,1.35631 0.1233,26.427591 c 0.0678,14.53518 0.21574,26.52003 0.32872,26.63301 0.11297,0.11298 12.09783,0.2609 26.63301,0.32872 l 26.42759,0.1233 1.30923,0.5367 c 2.98441,1.22341 5.14002,3.55552 6.20298,6.71087 0.4612,1.36907 0.50236,2.0986 0.50236,8.90486 0,6.81707 -0.0406,7.53414 -0.50462,8.91153 -1.13275,3.36253 -3.36355,5.64377 -6.77014,6.92321 l -1.47961,0.55572 -26.17543,0.0764 -26.17543,0.0764 -0.14596,0.54441 c -0.0803,0.29943 -0.14748,12.10808 -0.14933,26.24145 l -0.003,25.69703 -0.58535,1.61262 c -1.13346,3.12266 -3.723981,5.60538 -6.870639,6.58473 -1.292404,0.40224 -2.344662,0.45518 -8.903359,0.4479 -6.790871,-0.008 -7.562853,-0.0513 -8.876307,-0.50312 z"
         id="path830"
         inkscape:connector-curvature="0" />
      <path
         style="fill:#7f7f7f;stroke-width:0.24660194"
         d="m 78.937801,236.43897 c -3.70245,-0.54071 -6.923542,-3.25338 -8.472141,-7.13488 -0.409179,-1.02559 -0.448026,-2.92298 -0.562817,-27.48804 l -0.123301,-26.38641 -26.38641,-0.1233 c -24.565064,-0.11479 -26.462449,-0.15363 -27.488037,-0.56281 -1.845912,-0.73646 -3.036715,-1.5449 -4.402067,-2.98855 -2.5019786,-2.64548 -2.9953108,-4.7412 -2.9953108,-12.72436 0,-5.57983 0.2754544,-8.14445 1.0669875,-9.93425 0.7151923,-1.61717 2.7444253,-3.88323 4.2868493,-4.78715 2.559132,-1.49975 0.96832,-1.41645 29.654879,-1.5528 l 26.263109,-0.12483 0.123301,-26.38641 c 0.114791,-24.565062 0.153638,-26.462447 0.562817,-27.488034 0.736447,-1.84588 1.544885,-3.036708 2.988426,-4.401949 2.629682,-2.487044 4.806955,-3.000447 12.724486,-3.000447 5.626823,0 8.121032,0.270118 9.945778,1.077105 1.607016,0.7107 3.873995,2.743237 4.77562,4.28175 1.49975,2.559131 1.41645,0.968319 1.5528,29.654875 l 0.12483,26.26311 26.26311,0.12483 c 28.68656,0.13635 27.09575,0.0531 29.65488,1.5528 1.54242,0.90392 3.57166,3.16998 4.28685,4.78715 0.79153,1.7898 1.06699,4.35442 1.06699,9.93425 0,7.91379 -0.5151,10.10189 -2.99543,12.72448 -1.36524,1.44354 -2.55607,2.25198 -4.40195,2.98843 -1.02559,0.40918 -2.92297,0.44802 -27.48804,0.56281 l -26.38641,0.1233 -0.1233,26.38641 c -0.11479,24.56506 -0.15364,26.46245 -0.56282,27.48804 -1.59542,3.99888 -4.747407,6.59457 -8.684752,7.15198 -2.069504,0.29299 -12.229006,0.2808 -14.268927,-0.0171 z"
         id="path828"
         inkscape:connector-curvature="0" />
    </g>
  </g>
</svg>
