<?xml version="1.0" encoding="UTF-8" standalone="no"?>
<!-- Created with Inkscape (http://www.inkscape.org/) -->

<svg
   xmlns:dc="http://purl.org/dc/elements/1.1/"
   xmlns:cc="http://creativecommons.org/ns#"
   xmlns:rdf="http://www.w3.org/1999/02/22-rdf-syntax-ns#"
   xmlns:svg="http://www.w3.org/2000/svg"
   xmlns="http://www.w3.org/2000/svg"
   xmlns:sodipodi="http://sodipodi.sourceforge.net/DTD/sodipodi-0.dtd"
   xmlns:inkscape="http://www.inkscape.org/namespaces/inkscape"
   version="1.1"
   id="svg10"
   width="153"
   height="26"
   viewBox="0 0 153 26"
   sodipodi:docname="felix.svg"
   inkscape:version="0.92.3 (2405546, 2018-03-11)">
  <metadata
     id="metadata16">
    <rdf:RDF>
      <cc:Work
         rdf:about="">
        <dc:format>image/svg+xml</dc:format>
        <dc:type
           rdf:resource="http://purl.org/dc/dcmitype/StillImage" />
        <dc:title></dc:title>
      </cc:Work>
    </rdf:RDF>
  </metadata>
  <defs
     id="defs14" />
  <sodipodi:namedview
     pagecolor="#ffffff"
     bordercolor="#666666"
     borderopacity="1"
     objecttolerance="10"
     gridtolerance="10"
     guidetolerance="10"
     inkscape:pageopacity="0"
     inkscape:pageshadow="2"
     inkscape:window-width="2400"
     inkscape:window-height="1284"
     id="namedview12"
     showgrid="false"
     inkscape:zoom="6.8298015"
     inkscape:cx="76.5"
     inkscape:cy="13"
     inkscape:window-x="2391"
     inkscape:window-y="-9"
     inkscape:window-maximized="1"
     inkscape:current-layer="svg10" />
  <path
     style="fill:#cf0227;fill-opacity:1"
     d="M 3.181598,22.358575 C 2.612248,21.294733 2.146418,16.333013 2.146418,11.332529 V 2.2407424 l 15.25,0.276046 c 12.7662,0.231086 15.25,0.520354 15.25,1.776046 0,1.222708 -1.98726,1.552469 -10.75,1.783832 -10.68395,0.282087 -10.75,0.298984 -10.75,2.75 0,2.4403546 0.095,2.4661676 9.07332,2.4661676 8.10206,0 9.03751,0.187332 8.73875,1.75 -0.28299,1.480202 -1.68183,1.794545 -9.07332,2.038933 l -8.73875,0.288933 v 4.461067 c 0,4.423067 -0.0295,4.461067 -3.46482,4.461067 -2.4021,0 -3.78232,-0.593265 -4.5,-1.934259 z m 34.57903,0.06046 c -1.37998,-1.524861 -1.64161,-3.526704 -1.40498,-10.75 l 0.29077,-8.8762006 15.25,-0.276046 c 14.65584,-0.265291 15.25,-0.198427 15.25,1.716168 0,1.848469 -0.77565,2.012694 -10.75,2.276046 -9.98872,0.263732 -10.75,0.425465 -10.75,2.283832 0,1.8256046 0.76298,2.0251936 8.75,2.2889326 7.92721,0.261763 8.75,0.473339 8.75,2.25 0,1.803939 -0.72669,1.961067 -9.06955,1.961067 -8.83348,0 -9.06123,0.05857 -8.75,2.25 0.3058,2.153204 0.78202,2.262211 11.06955,2.533832 9.92544,0.262061 10.75,0.434644 10.75,2.25 0,1.860216 -0.74608,1.966168 -13.84501,1.966168 -12.26419,0 -14.03864,-0.21395 -15.54078,-1.873795 z m 34.98479,0.329941 c -1.23921,-1.239212 -1.599,-3.720495 -1.599,-11.027571 V 2.2928344 h 4.5 4.5 v 8.4661676 8.466169 l 10.75,0.283831 c 9.988722,0.263732 10.750002,0.425465 10.750002,2.283832 0,1.888771 -0.75919,2.015437 -13.651002,2.277575 -11.42995,0.232413 -13.91115,0.01741 -15.25,-1.321429 z m 32.852012,0.276782 c -0.29188,-0.760624 -0.40026,-5.6242 -0.24085,-10.807941 l 0.28984,-9.4249826 h 4.5 4.5 v 10.4999996 10.5 l -4.25915,0.307945 c -2.92799,0.211699 -4.42501,-0.124287 -4.78984,-1.075017 z m 19.87354,-4.555631 5.76195,-5.822703 -5.04325,-4.7173696 c -2.77379,-2.594549 -5.04325,-4.982856 -5.04325,-5.307345 0,-0.324489 2.0592,-0.357878 4.57601,-0.0742 3.09149,0.348456 5.46482,1.367315 7.31575,3.140624 l 2.73975,2.624842 2.35856,-2.510572 c 1.91315,-2.036454 3.31,-2.510572 7.39665,-2.510572 h 5.0381 l -4.92653,5.00174 -4.92653,5.0017386 5.42996,5.498261 5.42996,5.49826 h -4.70006 c -3.77381,0 -5.33989,-0.571685 -7.94672,-2.900882 l -3.24665,-2.900882 -3.30392,2.900882 c -2.6401,2.318037 -4.24501,2.900882 -7.98782,2.900882 h -4.6839 z"
     id="path3776"
     inkscape:connector-curvature="0" />
</svg>
